<?xml version='1.0' encoding='utf-8'?>
<svg xmlns:xlink="http://www.w3.org/1999/xlink" xmlns="http://www.w3.org/2000/svg" id="svg2457" version="1.1" viewBox="0 0 507.99999 285.75001" height="1080" width="1920"> <defs id="defs2451"> <linearGradient y2="138.25" x2="1058.3334" y1="402.83334" x1="555.625" gradientTransform="translate(-3144.9367,13755.943)" gradientUnits="userSpaceOnUse" id="linearGradient5282" xlink:href="#linearGradient964"/> <linearGradient id="linearGradient964"> <stop id="stop960" offset="0" style="stop-color:#f2f2f2;stop-opacity:1;"/> <stop id="stop962" offset="1" style="stop-color:#f2f2f2;stop-opacity:1"/> </linearGradient> </defs> <metadata id="metadata2454"> </metadata> <g transform="translate(0,-11.249992)" id="layer1"> <g id="g5476" transform="translate(2562.8533,-13834.26)"> <rect y="13845.51" x="-2562.8533" height="285.75" width="508" id="rect5264" style="color:#000000;clip-rule:nonzero;display:inline;overflow:visible;visibility:visible;opacity:1;isolation:auto;mix-blend-mode:normal;color-interpolation:sRGB;color-interpolation-filters:linearRGB;solid-color:#000000;solid-opacity:1;fill:url(#linearGradient5282);fill-opacity:1;fill-rule:nonzero;stroke:none;stroke-width:0.079375;stroke-linecap:round;stroke-linejoin:round;stroke-miterlimit:4;stroke-dasharray:none;stroke-dashoffset:0;stroke-opacity:1;color-rendering:auto;image-rendering:auto;shape-rendering:auto;text-rendering:auto;enable-background:accumulate"/> <path style="opacity:0.1;fill:#000000;fill-rule:evenodd;stroke:none;stroke-width:0.26458332px;stroke-linecap:butt;stroke-linejoin:miter;stroke-opacity:1" d="m -2270.6396,13921.078 v 0 a 1.650132,1.650132 0 0 1 0.4791,1.161 v 132.291 a 1.650132,1.650132 0 0 1 -1.6506,1.651 h -74.0838 a 1.650132,1.650132 0 0 1 -1.1441,-0.463 l 75.5421,75.542 h 216.6436 v -85.599 z" id="path5266"/> <g id="g5466"> <g transform="translate(-3144.9367,10148.955)" id="g5274"> <path style="color:#000000;font-style:normal;font-variant:normal;font-weight:normal;font-stretch:normal;font-size:medium;line-height:normal;font-family:sans-serif;font-variant-ligatures:normal;font-variant-position:normal;font-variant-caps:normal;font-variant-numeric:normal;font-variant-alternates:normal;font-feature-settings:normal;text-indent:0;text-align:start;text-decoration:none;text-decoration-line:none;text-decoration-style:solid;text-decoration-color:#000000;letter-spacing:normal;word-spacing:normal;text-transform:none;writing-mode:lr-tb;direction:ltr;text-orientation:mixed;dominant-baseline:auto;baseline-shift:baseline;text-anchor:start;white-space:normal;shape-padding:0;clip-rule:nonzero;display:inline;overflow:visible;visibility:visible;opacity:1;isolation:auto;mix-blend-mode:normal;color-interpolation:sRGB;color-interpolation-filters:linearRGB;solid-color:#000000;solid-opacity:1;vector-effect:none;fill:#5599ff;fill-opacity:1;fill-rule:evenodd;stroke:none;stroke-width:3.29993367;stroke-linecap:round;stroke-linejoin:round;stroke-miterlimit:4;stroke-dasharray:none;stroke-dashoffset:0;stroke-opacity:1;color-rendering:auto;image-rendering:auto;shape-rendering:auto;text-rendering:auto;enable-background:accumulate" d="m 799.04113,3771.6343 a 1.650132,1.650132 0 0 0 -1.64846,1.65 v 132.2911 a 1.650132,1.650132 0 0 0 1.64846,1.6507 h 74.08386 a 1.650132,1.650132 0 0 0 1.65055,-1.6507 v -132.2911 a 1.650132,1.650132 0 0 0 -1.65055,-1.65 z m 1.65004,3.3007 h 70.78327 v 128.992 h -70.78327 z" id="path5268"/> <path id="path5270" d="m 804.3333,3889.7014 v -100.5417 h 63.5 v 100.5417 z" style="fill:#ffffff;fill-rule:evenodd;stroke:#5599ff;stroke-width:1.32291663;stroke-linecap:butt;stroke-linejoin:round;stroke-miterlimit:4;stroke-dasharray:none;stroke-opacity:1"/> <path style="opacity:0.1;fill:#000000;fill-rule:evenodd;stroke:none;stroke-width:0.26458332px;stroke-linecap:butt;stroke-linejoin:miter;stroke-opacity:1" d="m 797.85672,3906.7208 v 0 l 0.0295,0.03 a 1.650132,1.650132 0 0 1 -0.0289,-0.031 z" id="path5272"/> </g> <path style="color:#000000;clip-rule:nonzero;display:inline;overflow:visible;visibility:visible;opacity:1;isolation:auto;mix-blend-mode:normal;color-interpolation:sRGB;color-interpolation-filters:linearRGB;solid-color:#000000;solid-opacity:1;fill:#5599ff;fill-opacity:1;fill-rule:nonzero;stroke:none;stroke-width:3.1003449;stroke-linecap:round;stroke-linejoin:round;stroke-miterlimit:4;stroke-dasharray:none;stroke-dashoffset:0;stroke-opacity:1;color-rendering:auto;image-rendering:auto;shape-rendering:auto;text-rendering:auto;enable-background:accumulate" d="m -2308.5271,13965.135 c -1.0343,-0.02 -2.0675,0.06 -3.0853,0.243 -8.0712,1.462 -13.6084,8.956 -12.6318,17.1 0.2474,2.033 0.8948,3.997 1.9053,5.778 l 0.1101,0.211 0.01,0.02 13.3673,23.152 13.4871,-23.38 c 1.3171,-2.325 2.0114,-4.95 2.0149,-7.622 l -0.4393,-3.664 c -1.6615,-6.83 -7.7102,-11.687 -14.7372,-11.835 z m -0.1794,7.452 a 7.9657788,7.9657788 0 0 1 7.5726,6.081 l 0.2257,1.883 a 7.9657788,7.9657788 0 0 1 -7.4909,7.952 7.9657788,7.9657788 0 0 1 -8.3841,-7.003 7.9657788,7.9657788 0 0 1 6.4913,-8.787 7.9657788,7.9657788 0 0 1 1.5854,-0.126 z" id="path5354"/> </g> </g> </g> </svg>